<?xml version="1.0" encoding="utf-8"?>
<!-- Generator: Adobe Illustrator 23.0.4, SVG Export Plug-In . SVG Version: 6.00 Build 0)  -->
<svg version="1.1" id="Layer_1" xmlns:svgjs="http://svgjs.com/svgjs"
	 xmlns="http://www.w3.org/2000/svg" xmlns:xlink="http://www.w3.org/1999/xlink" x="0px" y="0px" viewBox="0 0 512 512"
	 style="enable-background:new 0 0 512 512;" xml:space="preserve">
<style type="text/css">
	.st0{fill:#FFFFFF;}
</style>
<g>
	<path d="M374.3,76.1h-26.9V12.9c0-3.3-2.7-6-6-6c-0.6,0-1.2,0.1-1.7,0.2l-232.6,69c-12.3,0.7-21.9,10.8-21.9,23.1v376.6
		c0,12.8,10.4,23.1,23.1,23.1h266c12.8,0,23.1-10.4,23.1-23.1V99.2C397.4,86.4,387,76.1,374.3,76.1z M335.4,20.9V76h-186L335.4,20.9
		z M385.4,475.8c0,6.1-5,11.1-11.1,11.1h-266c-6.1,0-11.1-5-11.1-11.1V99.2c0-4,2.1-7.6,5.5-9.6l0.1,0.3l6.1-1.8h265.4
		c6.1,0,11.1,5,11.1,11.1V475.8z"/>
	<path d="M327.8,374.6h-173c-3.3,0-6,2.7-6,6s2.7,6,6,6h173c3.3,0,6-2.7,6-6S331.1,374.6,327.8,374.6z"/>
	<path d="M280.8,414.9h-79c-3.3,0-6,2.7-6,6s2.7,6,6,6h79c3.3,0,6-2.7,6-6S284.1,414.9,280.8,414.9z"/>
	<path d="M241.3,150.5c-49.8,0-90.3,40.4-90.3,90.3s40.4,90.3,90.3,90.3s90.3-40.4,90.3-90.3C331.5,190.9,291.1,150.5,241.3,150.5
		L241.3,150.5z M213.9,167.5c-7.4,7.7-13.3,16.6-17.5,26.4c-3.7-2.6-7.1-5.4-10.3-8.6C194,177.4,203.5,171.4,213.9,167.5
		L213.9,167.5z M178.3,194.4c4.3,4.1,8.9,7.9,13.9,11.1c-2.8,9.5-4.4,19.4-4.8,29.3h-24.1C164.4,220.1,169.6,206.2,178.3,194.4
		L178.3,194.4z M163.3,246.7h24.1c0.4,9.9,2,19.8,4.8,29.3c-5,3.2-9.6,6.9-13.9,11.1C169.6,275.4,164.4,261.4,163.3,246.7
		L163.3,246.7z M186.2,296.2c3.2-3.2,6.6-6,10.3-8.6c4.2,9.8,10.1,18.7,17.5,26.4C203.5,310.1,194,304,186.2,296.2z M235.3,316
		c-12.6-7.8-22.3-19.8-28.4-34.6c8.9-4.4,18.6-7,28.4-7.7V316z M235.3,261.7c-11.2,0.7-22.2,3.6-32.3,8.3c-2-7.6-3.2-15.4-3.6-23.3
		h35.9V261.7z M235.3,234.7h-35.9c0.4-7.9,1.6-15.7,3.6-23.3c10.2,4.8,21.1,7.6,32.3,8.3L235.3,234.7z M235.3,207.7
		c-9.9-0.7-19.5-3.4-28.4-7.7c6.2-14.8,15.9-26.7,28.4-34.5V207.7z M296.5,185.3c-3.2,3.2-6.6,6.1-10.3,8.6
		c-4.2-9.8-10.1-18.8-17.5-26.5C279.1,171.4,288.6,177.5,296.5,185.3z M247.3,165.5c12.6,7.9,22.3,19.8,28.5,34.6
		c-8.9,4.4-18.6,7-28.5,7.7V165.5z M247.3,219.8c11.2-0.7,22.2-3.5,32.4-8.3c2,7.6,3.2,15.4,3.6,23.2h-36V219.8z M247.3,246.7h35.9
		c-0.4,7.8-1.5,15.6-3.6,23.2c-10.2-4.8-21.2-7.6-32.4-8.3v-14.9L247.3,246.7z M247.3,316v-42.3c9.9,0.7,19.6,3.3,28.5,7.7
		C269.6,296.2,259.9,308.2,247.3,316L247.3,316z M268.7,314c7.4-7.7,13.3-16.7,17.5-26.5c3.7,2.6,7.1,5.5,10.3,8.6
		C288.6,304,279.1,310.1,268.7,314z M304.3,287.1c-4.2-4.2-8.9-7.9-13.9-11.1c2.8-9.5,4.4-19.3,4.8-29.2h24.1
		C318.2,261.3,313,275.3,304.3,287.1z M295.2,234.7c-0.4-9.9-2-19.7-4.8-29.2c5-3.2,9.6-7,13.9-11.1c8.7,11.8,13.9,25.7,15,40.3
		H295.2z"/>
</g>
</svg>
