<?xml version="1.0" encoding="utf-8"?>
<!-- Generator: Adobe Illustrator 23.0.4, SVG Export Plug-In . SVG Version: 6.00 Build 0)  -->
<svg version="1.1" id="Layer_1" xmlns:svgjs="http://svgjs.com/svgjs"
	 xmlns="http://www.w3.org/2000/svg" xmlns:xlink="http://www.w3.org/1999/xlink" x="0px" y="0px" viewBox="0 0 512 512"
	 style="enable-background:new 0 0 512 512;" xml:space="preserve">
<style type="text/css">
	.st0{fill:#FFFFFF;}
</style>
<path class="st0" d="M314.4,168.6c-0.2-0.3-0.5-0.5-0.7-0.7C293,146,264.1,132,232,130.6l-0.2-0.1l-5.2-0.1l-5.2,0.1l-0.2,0.1
	c-32.1,1.4-60.9,15.4-81.7,37.3c-0.2,0.3-0.6,0.4-0.8,0.7c0,0.1,0,0.1-0.1,0.2c-19.9,21.4-32.2,50.1-32.2,81.6
	c0,30.3,11.4,58,30,79.1c0.1,0.1,0.1,0.2,0.2,0.4c0.3,0.4,0.7,0.7,1.1,1c20.9,23,50.4,37.9,83.5,39.3l0.2,0.1l5.2,0.1l5.2-0.1
	l0.2-0.2c33.3-1.5,63-16.5,83.9-39.7c0.2-0.2,0.5-0.4,0.8-0.6c0.1-0.1,0.1-0.2,0.2-0.4c18.6-21.1,30-48.8,30-79.1
	c0-31.5-12.3-60.1-32.2-81.6C314.5,168.7,314.5,168.6,314.4,168.6L314.4,168.6z M203.6,147c-9.9,10.6-18.1,22.5-24.5,35.3
	c-7.9-2.9-15.6-6.5-22.9-10.9C169.4,159.6,185.6,151,203.6,147L203.6,147z M146.1,181.7c8.7,5.4,17.8,10,27.3,13.5
	c-5.9,15.2-9.3,31.3-10.1,48h-42.2C122.6,219.9,131.7,198.6,146.1,181.7L146.1,181.7z M143.9,316.3c-13.1-16.4-21.4-36.7-22.8-58.9
	h42.2c0.7,15.4,3.7,30.3,8.8,44.5C162.2,305.7,152.8,310.5,143.9,316.3L143.9,316.3z M153.6,326.8c7.6-4.8,15.6-8.7,23.9-11.9
	c6.6,14.1,15.4,27.1,26.1,38.7C184.4,349.4,167.3,339.9,153.6,326.8L153.6,326.8z M219.6,349.9c-11.9-11.4-21.5-24.7-28.6-39.3
	c9.3-2.5,18.8-4,28.6-4.5V349.9z M219.6,292c-11.6,0.5-23,2.4-34.1,5.5c-4.6-12.7-7.4-26.2-8.1-40h42.2V292z M219.6,243.3h-42.2
	c0.8-15.2,4-29.9,9.4-43.7c10.6,2.9,21.6,4.6,32.7,5.1v38.6H219.6z M219.6,190.5c-9.1-0.5-18.1-1.8-26.8-4
	c6.9-13.2,15.9-25.2,26.8-35.7V190.5z M297.1,171.4c-7.3,4.4-15,8-22.9,10.9c-6.4-12.8-14.6-24.7-24.5-35.3
	C267.7,151,283.9,159.6,297.1,171.4L297.1,171.4z M233.7,150.8c10.9,10.5,19.9,22.6,26.8,35.7c-8.7,2.2-17.7,3.5-26.8,4V150.8z
	 M233.7,204.7c11.2-0.5,22.1-2.2,32.7-5.1c5.4,13.8,8.7,28.5,9.4,43.7h-42.2v-38.6H233.7z M233.7,257.4h42.2
	c-0.7,13.8-3.5,27.3-8.1,40c-11.1-3.1-22.5-4.9-34.1-5.5L233.7,257.4L233.7,257.4z M233.7,306.1c9.7,0.5,19.3,2,28.6,4.5
	c-7,14.5-16.7,27.9-28.6,39.3V306.1L233.7,306.1z M249.7,353.7c10.7-11.6,19.5-24.6,26.1-38.7c8.3,3.2,16.3,7.1,23.9,11.9
	C286.1,339.9,268.9,349.4,249.7,353.7L249.7,353.7z M309.4,316.3c-8.9-5.8-18.4-10.6-28.2-14.4c5.1-14.2,8.1-29.1,8.8-44.5h42.2
	C330.8,279.6,322.5,299.9,309.4,316.3L309.4,316.3z M290,243.3c-0.8-16.7-4.2-32.8-10.1-48c9.5-3.6,18.6-8.1,27.3-13.5
	c14.3,16.8,23.4,38.1,25,61.5H290z"/>
<path class="st0" d="M332.6,405.7H120.7c-3.9,0-7.1,3.2-7.1,7.1s3.2,7.1,7.1,7.1h211.9c3.9,0,7.1-3.2,7.1-7.1
	C339.7,408.9,336.5,405.7,332.6,405.7L332.6,405.7z"/>
<path class="st0" d="M332.6,441.1H120.7c-3.9,0-7.1,3.2-7.1,7.1s3.2,7.1,7.1,7.1h211.9c3.9,0,7.1-3.2,7.1-7.1
	C339.7,444.2,336.5,441.1,332.6,441.1L332.6,441.1z"/>
<path class="st0" d="M360.9,477.7c0,10.9-8.9,19.8-19.9,19.8H92.5V102h231.7c-2.1-4.5-3.8-9.2-4.9-14.1H85.4c-3.9,0-7.1,3.2-7.1,7.1
	v409.7c0,3.9,3.2,7.1,7.1,7.1H341c18.7,0,34-15.2,34-34V142.9c-4.9-1.1-9.6-2.7-14.1-4.7V477.7z"/>
<g>
	<path class="st0" d="M394.7,153.4c-3.2,0-6.4,0-9.6,0c-1-0.1-2-0.3-2.9-0.4c-16.1-1.8-30.4-7.7-42.4-18.5
		c-20.3-18.1-29-40.9-25.7-67.9c2.5-20.3,12.3-37,28.3-49.7c16.1-12.8,34.7-18.2,55.2-16.2c15.2,1.4,28.7,7.1,40.5,16.8
		c14.7,12.1,23.8,27.5,27.2,46.2c0.5,2.8,0.8,5.6,1.2,8.4c0,3.2,0,6.4,0,9.6c-0.2,1.9-0.4,3.7-0.7,5.6c-2.2,15.3-8.3,28.8-18.6,40.3
		c-11.8,13.2-26.5,21.5-43.9,24.7C400.4,152.7,397.5,153,394.7,153.4z M456.9,76.9c0-36.9-30-66.9-66.9-67
		c-36.9-0.1-67.1,30-67.1,67c0,36.9,30,66.9,66.9,67C426.7,143.9,456.9,113.8,456.9,76.9z"/>
	<path class="st0" d="M385.1,29c3.3,0,6.3,0,9.6,0c0,0.6,0,1.2,0,1.7c0,14.3,0,28.5,0,42.8c0,1,0.3,1.7,1,2.3
		c8.4,8.3,16.7,16.7,25.1,25c0.4,0.4,0.8,0.7,1.1,0.9c-2.3,2.3-4.5,4.5-6.8,6.8c-0.1-0.1-0.4-0.4-0.7-0.7
		c-9.4-9.4-18.8-18.8-28.2-28.2c-0.5-0.5-0.9-1.3-0.9-2c-0.1-15.8,0-31.7,0-47.5C385.1,29.8,385.1,29.5,385.1,29z"/>
</g>
</svg>
